<svg width="58" height="10" viewBox="0 0 58 10" fill="none" xmlns="http://www.w3.org/2000/svg">
<path d="M10.2353 3.83682L6.51622 3.59231L5.11561 0.0736084L3.71499 3.59231L0 3.83682L2.84937 6.25623L1.91436 9.92632L5.11561 7.90283L8.31688 9.92632L7.38187 6.25623L10.2353 3.83682Z" fill="#E79331"/>
<path d="M22.1767 3.83688L18.4576 3.59237L17.057 0.0736694L15.6564 3.59237L11.9414 3.83688L14.7908 6.25629L13.8558 9.92638L17.057 7.90289L20.2583 9.92638L19.3233 6.25629L22.1767 3.83688Z" fill="#E79331"/>
<path d="M34.1176 3.83682L30.3985 3.59231L28.9979 0.0736084L27.5973 3.59231L23.8823 3.83682L26.7317 6.25623L25.7967 9.92632L28.9979 7.90283L32.1992 9.92632L31.2642 6.25623L34.1176 3.83682Z" fill="#E79331"/>
<path d="M46.0585 3.83682L42.3395 3.59231L40.9389 0.0736084L39.5382 3.59231L35.8232 3.83682L38.6726 6.25623L37.7376 9.92632L40.9389 7.90283L44.1401 9.92632L43.2051 6.25623L46.0585 3.83682Z" fill="#E79331"/>
<path d="M57.9999 3.83682L54.2809 3.59231L52.8803 0.0736084L51.4796 3.59231L47.7646 3.83682L50.614 6.25623L49.679 9.92632L52.8803 7.90283L56.0815 9.92632L55.1465 6.25623L57.9999 3.83682Z" fill="#2F1319"/>
</svg>
