<svg width="60" height="60" viewBox="0 0 60 60" fill="none" xmlns="http://www.w3.org/2000/svg">
<path d="M31.1064 0.685147C31.0671 0.755762 31.0449 0.832667 31.0397 0.915861C31.0342 1.00252 31.0432 1.08139 31.0665 1.15246C31.0899 1.22354 31.1361 1.29083 31.2052 1.35434C31.2745 1.41438 31.3717 1.4727 31.4968 1.5293C31.6222 1.58244 31.7841 1.63613 31.9825 1.69037C32.3822 1.80602 32.6724 1.94957 32.853 2.12102C33.037 2.29269 33.1202 2.51891 33.1025 2.7997C33.0927 2.95569 33.0526 3.09585 32.9821 3.22018C32.9117 3.34451 32.8182 3.44825 32.7016 3.5314C32.5886 3.61477 32.4542 3.67592 32.2987 3.71485C32.1432 3.75379 31.9753 3.76759 31.7951 3.75624C31.5041 3.73793 31.2402 3.67434 31.0035 3.56548C30.7705 3.45337 30.551 3.29165 30.3451 3.08032L30.6188 2.79477C30.7985 2.98009 30.9827 3.12218 31.1713 3.22106C31.3601 3.31646 31.581 3.37213 31.834 3.38805C32.08 3.40353 32.2794 3.35866 32.4321 3.25343C32.5883 3.14841 32.6723 3.00231 32.6841 2.81512C32.6895 2.72846 32.6805 2.65133 32.6569 2.58372C32.6335 2.51265 32.5889 2.4472 32.5231 2.38737C32.4573 2.32755 32.3634 2.27118 32.2415 2.21826C32.1231 2.16556 31.9698 2.11242 31.7819 2.05883C31.5768 2.00068 31.3981 1.93723 31.2459 1.86849C31.0971 1.79996 30.9751 1.72094 30.8799 1.63142C30.7846 1.5419 30.7162 1.44015 30.6747 1.32617C30.6331 1.21219 30.6171 1.07894 30.6267 0.926416C30.6359 0.780825 30.6737 0.64922 30.7403 0.531602C30.8068 0.413983 30.8965 0.315224 31.0094 0.235324C31.1225 0.151957 31.2533 0.090588 31.4019 0.0512175C31.5508 0.00838057 31.7118 -0.00758562 31.8851 0.00331891C32.1519 0.0201119 32.3817 0.0728549 32.5744 0.161548C32.7708 0.246993 32.9579 0.370132 33.1356 0.530967L32.8766 0.833098C32.7155 0.683754 32.5503 0.572431 32.3809 0.499131C32.2151 0.426048 32.0386 0.383618 31.8514 0.371841C31.7336 0.364426 31.6252 0.373265 31.5262 0.398356C31.4307 0.423666 31.3466 0.460138 31.2741 0.507773C31.205 0.555626 31.1491 0.614751 31.1064 0.685147Z" fill="white"/>
<path fill-rule="evenodd" clip-rule="evenodd" d="M37.0757 1.49779C37.1129 1.65025 37.1142 1.81509 37.0793 1.99231C37.0412 2.18657 36.9702 2.3496 36.8665 2.48142C36.7627 2.61323 36.6364 2.71582 36.4875 2.7892C36.342 2.86325 36.1791 2.90909 35.9987 2.92672C35.819 2.94094 35.6337 2.92929 35.4429 2.89178L34.5742 2.72096L34.326 3.98366L33.9223 3.90428L34.6255 0.325776L35.9644 0.589038C36.1654 0.628561 36.3423 0.691664 36.4951 0.778347C36.652 0.862293 36.7787 0.965071 36.8751 1.08668C36.9756 1.20555 37.0425 1.34259 37.0757 1.49779ZM36.5317 2.24037C36.5988 2.15091 36.644 2.04654 36.6675 1.92726C36.7184 1.66824 36.668 1.45657 36.5163 1.29222C36.3686 1.12514 36.15 1.01313 35.8604 0.956195L34.9559 0.778343L34.6465 2.35288L35.5306 2.52672C35.6771 2.55552 35.8136 2.5629 35.9403 2.54886C36.0703 2.53548 36.1846 2.50309 36.2831 2.45168C36.3858 2.39752 36.4686 2.32709 36.5317 2.24037Z" fill="white"/>
<path d="M41.0425 2.05748L38.5486 1.2053L37.3701 4.65646L39.8886 5.51707L40.0098 5.16209L37.8806 4.43453L38.2931 3.22663L40.1759 3.86997L40.2971 3.51499L38.4144 2.87165L38.8167 1.69332L40.9212 2.41245L41.0425 2.05748Z" fill="white"/>
<path d="M43.6228 6.40424L43.7436 6.76396C43.6159 6.80806 43.4876 6.84206 43.3585 6.86596C43.2341 6.88834 43.1067 6.89749 42.9763 6.89341C42.8459 6.88934 42.7133 6.87049 42.5784 6.83687C42.4436 6.80325 42.3019 6.74861 42.1534 6.67295C41.9183 6.55315 41.7237 6.39947 41.5698 6.21193C41.416 6.02439 41.3041 5.81929 41.2343 5.59664C41.1661 5.3709 41.1423 5.13462 41.1627 4.88778C41.1863 4.64253 41.2579 4.40229 41.3777 4.16707C41.4959 3.93494 41.6472 3.73724 41.8316 3.57395C42.0192 3.41224 42.2243 3.2926 42.4469 3.21503C42.6711 3.13437 42.9058 3.10194 43.1511 3.11774C43.3979 3.13044 43.6404 3.19748 43.8786 3.31886C44.0271 3.39452 44.1539 3.47468 44.2588 3.55934C44.3669 3.64558 44.4602 3.73791 44.5386 3.83636C44.6187 3.93171 44.6855 4.03395 44.739 4.14308C44.7941 4.24912 44.8422 4.36131 44.8832 4.47967L44.4955 4.62126C44.4225 4.42033 44.3268 4.2371 44.2085 4.07157C44.0932 3.90761 43.9242 3.76889 43.7014 3.65539C43.522 3.56397 43.3376 3.51289 43.1482 3.50217C42.9619 3.49302 42.7808 3.51964 42.6049 3.58202C42.4321 3.64598 42.2714 3.74342 42.1229 3.87436C41.9791 4.00377 41.8591 4.16287 41.763 4.35167C41.6669 4.54047 41.608 4.73265 41.5863 4.92821C41.5678 5.12534 41.5835 5.31264 41.6334 5.49009C41.6865 5.66912 41.7706 5.83285 41.886 5.98127C42.006 6.12818 42.1558 6.24734 42.3352 6.33877C42.558 6.45226 42.7703 6.50976 42.9722 6.51126C43.1756 6.50966 43.3925 6.47399 43.6228 6.40424Z" fill="white"/>
<path d="M46.0904 4.68216L44.1216 7.74562L44.4673 7.96787L46.436 4.90442L46.0904 4.68216Z" fill="white"/>
<path fill-rule="evenodd" clip-rule="evenodd" d="M48.7736 6.56016L49.0727 6.80331L48.0464 10.7019L47.7028 10.4226L47.9791 9.40519L46.4391 8.15331L45.496 8.62857L45.1686 8.36242L48.7736 6.56016ZM46.7976 7.9681L48.087 9.01627L48.617 7.05042L46.7976 7.9681Z" fill="white"/>
<path d="M48.5744 11.27L50.2495 13.077L50.5283 12.8184L49.133 11.3132L51.5275 9.09206L51.2477 8.79026L48.5744 11.27Z" fill="white"/>
<path fill-rule="evenodd" clip-rule="evenodd" d="M55.6557 16.6288C55.5076 16.8216 55.3246 16.9827 55.1066 17.112C54.8886 17.2413 54.6581 17.3256 54.415 17.3648C54.1748 17.4023 53.9385 17.3951 53.706 17.3433C53.4734 17.2915 53.2539 17.1936 53.0475 17.0496C52.844 16.9038 52.6714 16.7114 52.5298 16.4724C52.3881 16.2335 52.3021 15.9897 52.2719 15.7412C52.2434 15.4957 52.2607 15.2593 52.3237 15.0322C52.3898 14.8032 52.4969 14.5923 52.6449 14.3995C52.7977 14.2079 52.9831 14.0475 53.2011 13.9182C53.4191 13.7889 53.6482 13.7055 53.8883 13.668C54.1314 13.6287 54.3692 13.635 54.6018 13.6868C54.8343 13.7387 55.0523 13.8375 55.2558 13.9832C55.4622 14.1272 55.6363 14.3187 55.7779 14.5577C55.9196 14.7966 56.0047 15.0389 56.0332 15.2844C56.0635 15.5329 56.0456 15.7717 55.9795 16.0006C55.9164 16.2278 55.8085 16.4372 55.6557 16.6288ZM54.3179 16.956C54.5134 16.9249 54.7007 16.8562 54.8798 16.7499C55.059 16.6436 55.2091 16.5121 55.3302 16.3555C55.453 16.2019 55.5399 16.0353 55.5909 15.8557C55.6418 15.6761 55.6565 15.4897 55.6348 15.2967C55.615 15.1066 55.5519 14.9219 55.4457 14.7427C55.3394 14.5635 55.2068 14.4181 55.0478 14.3065C54.8936 14.1961 54.7264 14.1217 54.5462 14.0832C54.3659 14.0448 54.1781 14.0411 53.9827 14.0723C53.792 14.1046 53.6071 14.174 53.4279 14.2803C53.2487 14.3865 53.0977 14.5165 52.9749 14.6701C52.8538 14.8267 52.7678 14.9948 52.7169 15.1744C52.6659 15.354 52.6504 15.5389 52.6702 15.729C52.6919 15.9221 52.7558 16.1082 52.8621 16.2874C52.9683 16.4667 53.0986 16.6115 53.2528 16.7218C53.4118 16.8334 53.5814 16.9085 53.7616 16.9469C53.9418 16.9854 54.1272 16.9884 54.3179 16.956Z" fill="white"/>
<path d="M58.2893 19.917L57.2948 17.4925L53.922 18.877L54.0782 19.2577L55.5478 18.6545L56.2971 20.4813L56.644 20.3389L55.8947 18.5121L57.0993 18.0177L57.9376 20.0613L58.2893 19.917Z" fill="white"/>
<path d="M58.6966 21.1829L59.3622 23.7175L58.9945 23.8141L58.4334 21.6776L57.1741 22.0086L57.6756 23.9183L57.313 24.0137L56.8114 22.1039L55.275 22.5077L55.1705 22.1096L58.6966 21.1829Z" fill="white"/>
<path d="M59.9262 27.6471L59.6023 25.0308L55.9841 25.4791L56.3112 28.1212L56.6834 28.0751L56.4069 25.8414L57.6732 25.6846L57.9177 27.6597L58.2899 27.6136L58.0454 25.6385L59.2807 25.4854L59.554 27.6932L59.9262 27.6471Z" fill="white"/>
<path fill-rule="evenodd" clip-rule="evenodd" d="M57.8059 30.9312L56.2939 32.0215L56.304 31.5161L57.7418 30.4869L57.7626 29.4449L56.346 29.4165L56.3542 29.0049L60 29.0779L59.9686 30.6461C59.9646 30.8475 59.935 31.0276 59.8797 31.1864C59.8243 31.3486 59.7469 31.486 59.6474 31.5987C59.5514 31.7114 59.435 31.7977 59.2983 31.8575C59.1652 31.9174 59.017 31.9457 58.8538 31.9424C58.701 31.9394 58.5643 31.9123 58.4438 31.8612C58.3267 31.8103 58.2239 31.7387 58.1355 31.6466C58.0504 31.558 57.9796 31.4524 57.923 31.3296C57.8664 31.2069 57.8273 31.0741 57.8059 30.9312ZM58.5302 31.446C58.623 31.4965 58.7284 31.5229 58.8465 31.5253C59.0756 31.5299 59.2544 31.4518 59.3826 31.2911C59.5144 31.1304 59.5832 30.9024 59.5891 30.6072L59.6116 29.4819L58.1324 29.4523L58.11 30.5724C58.1073 30.7079 58.1222 30.8333 58.1546 30.9486C58.187 31.0639 58.2337 31.1638 58.2945 31.2485C58.3588 31.3331 58.4374 31.399 58.5302 31.446Z" fill="white"/>
<path d="M58.8658 33.5359C58.9482 33.5484 59.0228 33.5773 59.0897 33.6226C59.156 33.6713 59.21 33.7322 59.2516 33.8052C59.2927 33.8817 59.3216 33.9687 59.3385 34.0661C59.3548 34.1669 59.3541 34.2757 59.3363 34.3925C59.3082 34.5779 59.2505 34.7501 59.1632 34.909C59.0753 35.0713 58.95 35.2261 58.7871 35.3736L59.0653 35.6582C59.241 35.4952 59.3801 35.3195 59.4824 35.1313C59.5876 34.947 59.6603 34.7227 59.7004 34.4583C59.7264 34.2866 59.7246 34.1247 59.695 33.9727C59.6689 33.8211 59.6192 33.6854 59.5461 33.5654C59.4764 33.4459 59.386 33.3478 59.2747 33.2712C59.1634 33.1946 59.0356 33.1454 58.8915 33.1235C58.7404 33.1005 58.6063 33.1048 58.4892 33.1362C58.372 33.1676 58.2647 33.2268 58.1672 33.3139C58.0697 33.401 57.9803 33.5156 57.899 33.6578C57.8172 33.8035 57.7384 33.976 57.6625 34.1752C57.5927 34.3579 57.5263 34.5059 57.4634 34.6193C57.4001 34.7361 57.3357 34.8247 57.2704 34.8851C57.205 34.9454 57.1359 34.9841 57.0631 35.0011C56.9937 35.0187 56.9161 35.021 56.8303 35.008C56.6449 34.9798 56.5068 34.8833 56.4159 34.7185C56.3245 34.557 56.2973 34.3544 56.3343 34.1106C56.3723 33.8599 56.4471 33.6447 56.5587 33.4649C56.6737 33.2856 56.8313 33.1146 57.0316 32.9518L56.7713 32.654C56.5428 32.8407 56.3625 33.0451 56.2304 33.2675C56.1012 33.4938 56.0148 33.7512 55.971 34.0396C55.9439 34.2182 55.9429 34.3867 55.9681 34.5451C55.9932 34.7035 56.0423 34.8427 56.1154 34.9627C56.188 35.0861 56.2831 35.1884 56.4008 35.2695C56.5184 35.3506 56.6545 35.4028 56.8089 35.4263C57.087 35.4685 57.3196 35.4054 57.5067 35.2371C57.6932 35.0722 57.8616 34.7957 58.0118 34.4074C58.0832 34.2145 58.1509 34.0579 58.2148 33.9376C58.2821 33.8179 58.3487 33.7261 58.4146 33.6623C58.4839 33.5991 58.555 33.5589 58.6278 33.5419C58.7006 33.5248 58.7799 33.5228 58.8658 33.5359Z" fill="white"/>
<path d="M55.8789 41.0023L55.4865 40.8462L56.0223 39.4992L56.4146 39.6553L55.8789 41.0023Z" fill="white"/>
<path d="M54.4258 45.7575C54.4944 45.8048 54.5489 45.8635 54.5892 45.9335C54.6275 46.0063 54.6494 46.0847 54.6549 46.1686C54.6583 46.2554 54.6463 46.3462 54.6189 46.4412C54.5894 46.539 54.5412 46.6365 54.4742 46.7337C54.3678 46.8882 54.2405 47.0177 54.0925 47.1223C53.9425 47.2298 53.7621 47.3142 53.5512 47.3755L53.6768 47.7532C53.9061 47.6835 54.108 47.5865 54.2823 47.462C54.4575 47.3424 54.621 47.1725 54.7727 46.9523C54.8713 46.8093 54.9405 46.6629 54.9804 46.5133C55.0231 46.3656 55.0378 46.2218 55.0246 46.0819C55.0142 45.9439 54.9758 45.8162 54.9092 45.6985C54.8427 45.5809 54.7493 45.4807 54.6293 45.3979C54.5035 45.3112 54.3811 45.2563 54.262 45.2333C54.1429 45.2102 54.0205 45.2165 53.8948 45.2521C53.769 45.2877 53.6385 45.3517 53.5032 45.444C53.3659 45.5392 53.2195 45.6598 53.0641 45.8057C52.9214 45.9393 52.797 46.0434 52.6909 46.1179C52.5828 46.1952 52.4862 46.2467 52.401 46.2723C52.3159 46.298 52.2368 46.3025 52.1639 46.286C52.0938 46.2714 52.023 46.2395 51.9515 46.1902C51.7972 46.0837 51.7152 45.9365 51.7056 45.7485C51.694 45.5633 51.7582 45.3692 51.8981 45.1662C52.042 44.9574 52.2034 44.7966 52.3823 44.6838C52.5642 44.5729 52.7807 44.4881 53.0321 44.4294L52.9282 44.0477C52.6411 44.1155 52.3895 44.2205 52.1735 44.3626C51.9584 44.5096 51.768 44.7032 51.6025 44.9434C51.5 45.0921 51.4255 45.2431 51.3788 45.3966C51.3321 45.55 51.3154 45.6967 51.3286 45.8366C51.3399 45.9793 51.3806 46.1129 51.451 46.2373C51.5213 46.3617 51.6207 46.4683 51.7494 46.557C51.9809 46.7167 52.2176 46.7618 52.4595 46.6923C52.6994 46.6257 52.9718 46.4508 53.2767 46.1674C53.4253 46.0252 53.5546 45.914 53.6647 45.8338C53.7776 45.7556 53.8777 45.7023 53.9648 45.6738C54.0548 45.6472 54.1362 45.6422 54.2092 45.6588C54.2821 45.6753 54.3543 45.7082 54.4258 45.7575Z" fill="white"/>
<path fill-rule="evenodd" clip-rule="evenodd" d="M50.8125 50.6158C50.6629 50.5692 50.5213 50.4854 50.3877 50.3644C50.2413 50.2318 50.1384 50.0872 50.0791 49.9305C50.0198 49.7739 49.9971 49.6131 50.011 49.4479C50.0225 49.2853 50.0672 49.1223 50.145 48.9589C50.2253 48.7978 50.3306 48.6453 50.4609 48.5014L51.0541 47.8459L50.1022 46.9837L50.3778 46.6792L53.0757 49.1226L52.1614 50.1328C52.0242 50.2844 51.8792 50.4033 51.7264 50.4894C51.5739 50.5805 51.4208 50.6359 51.2672 50.6558C51.1138 50.6806 50.9622 50.6673 50.8125 50.6158ZM50.4575 49.7682C50.4995 49.8716 50.5654 49.9641 50.6553 50.0455C50.8506 50.2224 51.0575 50.2882 51.2761 50.243C51.495 50.2027 51.7033 50.0733 51.901 49.8548L52.5187 49.1724L51.3316 48.0973L50.7279 48.7643C50.6279 48.8748 50.5513 48.9878 50.4981 49.1034C50.4427 49.2215 50.4115 49.336 50.4048 49.4468C50.3982 49.5624 50.4158 49.6696 50.4575 49.7682Z" fill="white"/>
<path d="M48.3426 53.7397L50.3454 52.0261L47.9757 49.2544L45.953 50.9849L46.1968 51.27L47.9067 49.807L48.7361 50.7771L47.2241 52.0708L47.4678 52.3558L48.9799 51.0622L49.789 52.0086L48.0988 53.4546L48.3426 53.7397Z" fill="white"/>
<path d="M43.2646 53.7357L42.8939 53.6554C42.9213 53.5231 42.9578 53.3954 43.0033 53.2723C43.0478 53.1539 43.1051 53.0398 43.1753 52.9298C43.2456 52.8198 43.3296 52.7154 43.4275 52.6167C43.5254 52.5181 43.6448 52.4243 43.7858 52.3354C44.009 52.1946 44.2406 52.106 44.4804 52.0698C44.7202 52.0335 44.9536 52.0423 45.1805 52.0963C45.4093 52.1532 45.6245 52.2536 45.826 52.3975C46.0246 52.5432 46.1942 52.7278 46.335 52.9511C46.4738 53.1714 46.5662 53.4026 46.6121 53.6447C46.655 53.8886 46.6528 54.1261 46.6055 54.3572C46.56 54.5911 46.4677 54.8094 46.3287 55.0121C46.1915 55.2177 46.0098 55.3919 45.7836 55.5345C45.6426 55.6234 45.5089 55.6913 45.3825 55.7382C45.2531 55.7869 45.1261 55.8198 45.0014 55.8369C44.8786 55.8569 44.7566 55.8619 44.6354 55.8521C44.5162 55.8452 44.3952 55.8291 44.2725 55.8038L44.3493 55.3982C44.5593 55.4382 44.7656 55.4497 44.9684 55.4328C45.1682 55.4176 45.3738 55.3434 45.5853 55.21C45.7556 55.1025 45.8938 54.9702 46 54.8129C46.1031 54.6575 46.173 54.4883 46.2094 54.3051C46.2429 54.1239 46.2415 53.9359 46.205 53.7413C46.1675 53.5515 46.0922 53.3669 45.9792 53.1877C45.8663 53.0085 45.7314 52.8595 45.5745 52.7409C45.4147 52.6241 45.2458 52.5417 45.0678 52.4938C44.8869 52.4477 44.7032 52.4363 44.5167 52.4595C44.3291 52.4875 44.1501 52.5552 43.9798 52.6626C43.7683 52.796 43.6103 52.9491 43.5057 53.1218C43.403 53.2974 43.3226 53.5021 43.2646 53.7357Z" fill="white"/>
<path d="M43.4588 56.777L41.8546 53.4947L41.4843 53.6758L43.0885 56.9581L43.4588 56.777Z" fill="white"/>
<path fill-rule="evenodd" clip-rule="evenodd" d="M40.4914 58.0847L40.1294 58.217L37.3088 55.3374L37.7246 55.1854L38.4564 55.9441L40.3203 55.2629L40.3956 54.2092L40.7919 54.0644L40.4914 58.0847ZM40.2955 55.6658L38.735 56.2361L40.1509 57.6989L40.2955 55.6658Z" fill="white"/>
<path d="M36.5514 55.498L34.141 56.0066L34.2194 56.3788L36.2273 55.9551L36.9012 59.1514L37.3038 59.0665L36.5514 55.498Z" fill="white"/>
<path fill-rule="evenodd" clip-rule="evenodd" d="M28.4 58.8659C28.3061 58.6417 28.2571 58.4028 28.253 58.1493C28.2489 57.8957 28.2901 57.6536 28.3766 57.423C28.4632 57.1958 28.5867 56.994 28.747 56.8177C28.9074 56.6414 29.1013 56.4993 29.3287 56.3914C29.5562 56.287 29.8089 56.2325 30.0866 56.228C30.3643 56.2235 30.6186 56.2698 30.8493 56.3667C31.0766 56.4638 31.2732 56.5961 31.4392 56.7636C31.6052 56.9346 31.7351 57.1322 31.8291 57.3565C31.9196 57.5843 31.9669 57.8249 31.971 58.0785C31.9751 58.332 31.9339 58.5723 31.8473 58.7995C31.7607 59.0302 31.6373 59.2337 31.4769 59.41C31.3166 59.5863 31.1226 59.7266 30.8951 59.8311C30.6677 59.939 30.4151 59.9952 30.1374 59.9997C29.8596 60.0042 29.6071 59.9579 29.3798 59.8609C29.1491 59.7639 28.9507 59.6299 28.7847 59.4589C28.6188 59.2914 28.4905 59.0937 28.4 58.8659ZM28.7796 57.5415C28.7097 57.7267 28.6764 57.9235 28.6798 58.1319C28.6832 58.3403 28.7228 58.5359 28.7987 58.7188C28.8712 58.9017 28.9727 59.0599 29.1033 59.1932C29.234 59.3266 29.3885 59.4317 29.5668 59.5087C29.7417 59.5858 29.9333 59.6226 30.1416 59.6193C30.3499 59.6159 30.542 59.5728 30.7177 59.4901C30.8901 59.4108 31.0376 59.3025 31.1604 59.165C31.2832 59.0275 31.3795 58.8662 31.4495 58.6809C31.516 58.4992 31.5475 58.3042 31.5441 58.0958C31.5408 57.8874 31.5029 57.6918 31.4304 57.5089C31.3545 57.326 31.2513 57.1679 31.1206 57.0345C30.99 56.9012 30.8372 56.796 30.6623 56.7189C30.484 56.6419 30.2906 56.6051 30.0823 56.6085C29.874 56.6118 29.6837 56.6532 29.5114 56.7324C29.3356 56.8151 29.1863 56.9252 29.0636 57.0627C28.9408 57.2002 28.8461 57.3598 28.7796 57.5415Z" fill="white"/>
<path d="M24.1331 59.4001L26.7266 59.7932L27.2735 56.1827L26.8662 56.121L26.6279 57.6941L24.6737 57.3979L24.6175 57.7693L26.5716 58.0655L26.3763 59.355L24.1901 59.0236L24.1331 59.4001Z" fill="white"/>
<path d="M22.8517 59.0977L20.3345 58.3714L20.4399 58.006L22.5617 58.6182L22.9226 57.3667L21.026 56.8195L21.1299 56.4591L23.0265 57.0063L23.4667 55.4795L23.8621 55.5936L22.8517 59.0977Z" fill="white"/>
<path d="M16.6732 56.8424L19.0852 57.9046L20.5541 54.5668L18.1183 53.4941L17.9672 53.8374L20.0264 54.7442L19.5123 55.9125L17.6914 55.1106L17.5403 55.4539L19.3612 56.2558L18.8597 57.3955L16.8243 56.4991L16.6732 56.8424Z" fill="white"/>
<path fill-rule="evenodd" clip-rule="evenodd" d="M14.9352 53.3449L14.7728 51.4847L15.2023 51.7525L15.3501 53.5176L16.2355 54.0699L16.9863 52.8653L17.3361 53.0835L15.4038 56.1834L14.0713 55.3522C13.9001 55.2455 13.7605 55.1276 13.6523 54.9986C13.5412 54.8678 13.4627 54.7307 13.4168 54.5873C13.3691 54.4469 13.3546 54.3025 13.3732 54.1542C13.39 54.0089 13.4417 53.8668 13.5282 53.7281C13.6092 53.5982 13.7025 53.4945 13.8082 53.4169C13.9121 53.3423 14.0263 53.2905 14.1509 53.2616C14.2707 53.2339 14.3979 53.2271 14.5325 53.2413C14.6671 53.2556 14.8013 53.2901 14.9352 53.3449ZM14.121 53.7042C14.03 53.7582 13.9532 53.8353 13.8906 53.9357C13.7692 54.1306 13.7447 54.3244 13.8171 54.5172C13.8878 54.713 14.0485 54.8891 14.2994 55.0455L15.2556 55.642L16.0395 54.3843L15.0877 53.7906C14.9726 53.7188 14.8572 53.6673 14.7414 53.6361C14.6256 53.6049 14.5157 53.5937 14.4118 53.6027C14.306 53.6146 14.209 53.6485 14.121 53.7042Z" fill="white"/>
<path d="M12.1602 52.8997C12.1071 52.9639 12.0439 53.013 11.9707 53.0471C11.8948 53.0789 11.8148 53.0939 11.7308 53.092C11.6441 53.0878 11.5546 53.0679 11.4625 53.0322C11.3676 52.9943 11.2747 52.9377 11.1838 52.8625C11.0393 52.7429 10.9215 52.6048 10.8302 52.4482C10.7363 52.2893 10.668 52.1021 10.6255 51.8865L10.2384 51.9787C10.2877 52.2133 10.3667 52.4229 10.4753 52.6075C10.5791 52.7926 10.734 52.9704 10.9401 53.1408C11.0738 53.2515 11.2135 53.3333 11.359 53.3862C11.5024 53.4417 11.6443 53.469 11.7848 53.468C11.9231 53.4697 12.0537 53.4426 12.1766 53.3866C12.2995 53.3305 12.4075 53.2463 12.5005 53.1339C12.5978 53.0162 12.6632 52.899 12.6966 52.7823C12.73 52.6657 12.7344 52.5432 12.7099 52.4147C12.6855 52.2863 12.6332 52.1506 12.5531 52.0077C12.4703 51.8626 12.3631 51.7062 12.2313 51.5386C12.1107 51.3847 12.018 51.2516 11.9532 51.1393C11.8856 51.0248 11.8428 50.924 11.8247 50.8369C11.8066 50.7498 11.809 50.6707 11.8319 50.5994C11.8525 50.5309 11.8905 50.4632 11.9458 50.3962C12.0653 50.2517 12.2191 50.1829 12.4072 50.1898C12.5926 50.1945 12.7803 50.2754 12.9702 50.4326C13.1655 50.5942 13.3115 50.7691 13.4082 50.9573C13.5027 51.1482 13.5682 51.3715 13.6047 51.627L13.9939 51.5569C13.9515 51.2649 13.869 51.005 13.7463 50.7773C13.6188 50.5501 13.4427 50.3435 13.218 50.1575C13.0789 50.0424 12.935 49.9549 12.7863 49.8949C12.6376 49.835 12.493 49.8055 12.3525 49.8064C12.2093 49.8052 12.0727 49.8341 11.9427 49.8933C11.8126 49.9525 11.6978 50.0422 11.5982 50.1627C11.4189 50.3795 11.3533 50.6114 11.4013 50.8585C11.4467 51.1033 11.5971 51.3901 11.8525 51.7187C11.9811 51.8792 12.0806 52.0179 12.1508 52.1346C12.2188 52.2539 12.2632 52.3583 12.2839 52.4476C12.3025 52.5396 12.3003 52.6212 12.2775 52.6924C12.2546 52.7637 12.2155 52.8328 12.1602 52.8997Z" fill="white"/>
<path d="M7.31555 46.5131L7.64882 46.2557L8.53204 47.3999L8.19876 47.6573L7.31555 46.5131Z" fill="white"/>
<path d="M3.95321 42.8267C3.87746 42.8614 3.79921 42.8782 3.71846 42.877C3.63626 42.8727 3.55774 42.8514 3.4829 42.8131C3.40662 42.7717 3.33474 42.7149 3.26726 42.6426C3.19834 42.5673 3.13927 42.4759 3.09008 42.3686C3.01193 42.1981 2.96582 42.0224 2.95173 41.8417C2.93619 41.6578 2.95609 41.4595 3.01143 41.2469L2.62279 41.1615C2.56521 41.3942 2.54525 41.6173 2.56289 41.8309C2.57594 42.0427 2.63817 42.2701 2.74959 42.5132C2.82195 42.6711 2.91218 42.8055 3.0203 42.9164C3.12526 43.0287 3.24121 43.115 3.36813 43.1753C3.49189 43.2369 3.62131 43.2693 3.75638 43.2723C3.89145 43.2753 4.02526 43.2464 4.15782 43.1856C4.2967 43.1219 4.40651 43.0448 4.48725 42.9543C4.56799 42.8638 4.62525 42.7554 4.65904 42.6291C4.69283 42.5028 4.70471 42.3578 4.6947 42.1943C4.68324 42.0276 4.65461 41.8402 4.60882 41.6319C4.56711 41.4409 4.54144 41.2807 4.53183 41.1514C4.52077 41.0189 4.52601 40.9095 4.54757 40.8232C4.56913 40.7369 4.60569 40.6666 4.65724 40.6124C4.70563 40.5597 4.76928 40.5152 4.84818 40.479C5.01862 40.4009 5.18703 40.4058 5.35341 40.4938C5.51834 40.5786 5.65218 40.7331 5.75492 40.9573C5.86055 41.1878 5.91601 41.4088 5.9213 41.6203C5.92342 41.8333 5.88538 42.0628 5.80715 42.3089L6.1881 42.415C6.27685 42.1336 6.31548 41.8637 6.30401 41.6053C6.28794 41.3452 6.21912 41.0825 6.09757 40.8173C6.02232 40.6531 5.93077 40.5117 5.82291 40.3931C5.71506 40.2744 5.59767 40.185 5.47075 40.1247C5.34238 40.0613 5.20678 40.028 5.06395 40.0247C4.92112 40.0214 4.77869 40.0524 4.63666 40.1175C4.38101 40.2348 4.2211 40.4151 4.15695 40.6585C4.09135 40.8987 4.10217 41.2224 4.18941 41.6294C4.23546 41.8299 4.26475 41.998 4.27726 42.1336C4.28661 42.2707 4.28123 42.384 4.26112 42.4734C4.23785 42.5643 4.20044 42.6369 4.14889 42.6911C4.09734 42.7453 4.03212 42.7905 3.95321 42.8267Z" fill="white"/>
<path fill-rule="evenodd" clip-rule="evenodd" d="M1.61337 37.2364C1.73007 37.1315 1.87472 37.0525 2.04731 36.9994C2.23649 36.9413 2.41366 36.9268 2.57881 36.956C2.74396 36.9851 2.89404 37.048 3.02905 37.1446C3.16303 37.2379 3.28041 37.3599 3.38119 37.5106C3.47864 37.6623 3.55592 37.8311 3.61303 38.017L3.87308 38.8637L5.10278 38.4857L5.22362 38.8791L1.73865 39.9503L1.33787 38.6455C1.27771 38.4496 1.2497 38.2638 1.25385 38.0881C1.25367 37.9101 1.28436 37.7499 1.34594 37.6074C1.40318 37.4627 1.49232 37.339 1.61337 37.2364ZM2.52466 37.365C2.41413 37.3481 2.30078 37.3575 2.18462 37.3932C1.93237 37.4708 1.7697 37.6153 1.69661 37.8267C1.61918 38.0358 1.6238 38.2814 1.71048 38.5636L1.98124 39.4451L3.51463 38.9738L3.24999 38.1123C3.20614 37.9695 3.14811 37.8456 3.07591 37.7406C3.00269 37.6323 2.92014 37.5469 2.82826 37.4843C2.73205 37.4194 2.63085 37.3796 2.52466 37.365Z" fill="white"/>
<path d="M0.212279 33.4563L0.633937 36.0662L4.24324 35.4827L3.81742 32.847L3.44618 32.907L3.80617 35.1352L2.54291 35.3395L2.22458 33.3692L1.85334 33.4292L2.17167 35.3995L0.939348 35.5987L0.583522 33.3963L0.212279 33.4563Z" fill="white"/>
<path d="M2.83816 29.1444L3.09762 28.8676C3.19692 28.9591 3.28767 29.0561 3.36985 29.1585C3.44849 29.2575 3.5169 29.3654 3.5751 29.4822C3.6333 29.599 3.67954 29.7247 3.71383 29.8595C3.74812 29.9942 3.76714 30.1449 3.7709 30.3116C3.77684 30.5755 3.73371 30.8196 3.64152 31.0441C3.54933 31.2685 3.42176 31.4642 3.25881 31.6311C3.09239 31.7982 2.89568 31.9311 2.66869 32.0301C2.44162 32.1255 2.19617 32.1762 1.93236 32.1821C1.67201 32.188 1.42627 32.1484 1.19513 32.0633C0.963918 31.9747 0.761428 31.8507 0.587661 31.6913C0.410424 31.532 0.270666 31.3406 0.16839 31.1171C0.062642 30.8936 0.00675855 30.6482 0.000739606 30.3809C-0.00301246 30.2142 0.00751133 30.0646 0.032311 29.932C0.0570327 29.7959 0.0941383 29.67 0.143628 29.5543C0.189646 29.4386 0.248009 29.3313 0.318718 29.2324C0.385954 29.1336 0.461948 29.0381 0.546697 28.9459L0.85503 29.2203C0.712754 29.3799 0.596786 29.551 0.507126 29.7337C0.417388 29.9129 0.375333 30.1275 0.380961 30.3775C0.385495 30.5789 0.4279 30.7656 0.508177 30.9375C0.588375 31.1059 0.69761 31.2528 0.835882 31.3782C0.974076 31.5002 1.13598 31.5956 1.3216 31.6643C1.50367 31.7297 1.70058 31.76 1.91233 31.7553C2.12408 31.7505 2.32116 31.7113 2.50357 31.6377C2.68591 31.5607 2.84336 31.4581 2.97592 31.33C3.10841 31.1985 3.21266 31.0468 3.28867 30.8748C3.36113 30.6995 3.39509 30.5111 3.39056 30.3097C3.38493 30.0597 3.33496 29.8454 3.24064 29.6669C3.14285 29.4884 3.00869 29.3143 2.83816 29.1444Z" fill="white"/>
<path d="M0.140579 27.7788L3.77495 28.0668L3.80745 27.6565L0.173076 27.3685L0.140579 27.7788Z" fill="white"/>
<path fill-rule="evenodd" clip-rule="evenodd" d="M0.527446 24.5362L0.599334 24.1574L4.5166 23.2097L4.43402 23.6448L3.40775 23.8847L3.03762 25.8349L3.9036 26.4395L3.82492 26.8541L0.527446 24.5362ZM2.70444 25.6072L3.01434 23.9744L1.03317 24.4413L2.70444 25.6072Z" fill="white"/>
<path d="M4.7498 22.4771L5.53812 20.136L5.17693 20.0143L4.52027 21.9644L1.41799 20.9191L1.28632 21.3101L4.7498 22.4771Z" fill="white"/>
<path fill-rule="evenodd" clip-rule="evenodd" d="M6.09453 13.7113C6.33467 13.7488 6.56373 13.8322 6.78171 13.9615C6.99969 14.0908 7.1842 14.2527 7.33524 14.4473C7.48329 14.6401 7.59035 14.851 7.65643 15.0799C7.7225 15.3089 7.7419 15.5485 7.71461 15.7988C7.68433 16.0473 7.59836 16.2911 7.45669 16.53C7.31503 16.769 7.14246 16.9614 6.939 17.1071C6.7373 17.2499 6.52168 17.3481 6.29213 17.4017C6.0596 17.4535 5.82327 17.4607 5.58314 17.4232C5.34179 17.381 5.11212 17.2952 4.89414 17.1659C4.67616 17.0366 4.49314 16.8755 4.34509 16.6827C4.19405 16.4882 4.08549 16.2764 4.01942 16.0474C3.95334 15.8185 3.93544 15.5797 3.96572 15.3312C3.99301 15.0809 4.07749 14.8363 4.21915 14.5973C4.36082 14.3584 4.5325 14.1675 4.73419 14.0247C4.93766 13.8789 5.15566 13.7801 5.38819 13.7283C5.61774 13.6747 5.85318 13.6691 6.09453 13.7113ZM7.02321 14.7285C6.90214 14.5719 6.75202 14.4405 6.57286 14.3342C6.39369 14.2279 6.20639 14.1592 6.01094 14.128C5.81726 14.0939 5.62944 14.0975 5.44746 14.139C5.26549 14.1804 5.095 14.2569 4.93601 14.3685C4.77879 14.4771 4.64706 14.6211 4.54081 14.8003C4.43456 14.9795 4.37062 15.1656 4.34899 15.3587C4.32615 15.5471 4.34108 15.7295 4.39378 15.9061C4.44649 16.0828 4.53338 16.2494 4.65446 16.406C4.77431 16.5578 4.92383 16.6869 5.10299 16.7932C5.28215 16.8995 5.46857 16.9697 5.66225 17.0038C5.8577 17.035 6.04641 17.0298 6.22838 16.9884C6.41036 16.947 6.57996 16.8719 6.73718 16.7633C6.89617 16.6517 7.02879 16.5063 7.13503 16.3271C7.24128 16.1479 7.30583 15.9641 7.32868 15.7758C7.35031 15.5827 7.33477 15.3979 7.28206 15.2212C7.22935 15.0446 7.14307 14.8804 7.02321 14.7285Z" fill="white"/>
<path d="M7.79094 9.82709L6.12564 11.8501L8.94001 14.1684L9.20156 13.8506L7.9753 12.8405L9.23007 11.3162L8.94059 11.0778L7.68582 12.6021L6.68069 11.7741L8.08444 10.0689L7.79094 9.82709Z" fill="white"/>
<path d="M8.72501 8.88608L10.6374 7.10407L10.896 7.3817L9.28391 8.88384L10.1693 9.83466L11.6103 8.49195L11.8653 8.76578L10.4243 10.1085L11.5045 11.2685L11.2041 11.5484L8.72501 8.88608Z" fill="white"/>
<path d="M13.8005 4.76022L11.6658 6.28924L13.7804 9.24329L15.9361 7.69916L15.7186 7.39532L13.8962 8.70072L13.1561 7.66681L14.7676 6.51249L14.5501 6.20864L12.9386 7.36296L12.2166 6.35437L14.018 5.06407L13.8005 4.76022Z" fill="white"/>
<path fill-rule="evenodd" clip-rule="evenodd" d="M17.6916 5.02891L19.3719 5.83484L18.9236 6.0678L17.3323 5.29777L16.4079 5.7781L17.061 7.03567L16.6958 7.2254L15.0152 3.98903L16.4064 3.26613C16.5851 3.17326 16.7574 3.11312 16.9231 3.08571C17.0919 3.05669 17.2496 3.05891 17.3961 3.09238C17.541 3.12276 17.6724 3.18365 17.7903 3.27504C17.9065 3.36334 18.0023 3.47993 18.0775 3.6248C18.148 3.76042 18.1896 3.89337 18.2025 4.02367C18.2138 4.15088 18.2002 4.27537 18.1617 4.39714C18.1247 4.51422 18.0658 4.62698 17.9852 4.73542C17.9046 4.84386 17.8067 4.94168 17.6916 5.02891ZM17.7967 4.14645C17.7966 4.04081 17.7694 3.9356 17.715 3.8308C17.6093 3.62737 17.4553 3.5078 17.2529 3.47209C17.0488 3.4333 16.8159 3.48195 16.554 3.61805L15.5556 4.1368L16.2375 5.44984L17.2312 4.93349C17.3513 4.87105 17.4543 4.79799 17.5399 4.71434C17.6256 4.63068 17.691 4.54189 17.7362 4.44799C17.7797 4.351 17.7999 4.25048 17.7967 4.14645Z" fill="white"/>
<path d="M19.5282 2.8881C19.5007 2.80974 19.4913 2.73055 19.4999 2.65052C19.5117 2.56935 19.54 2.49339 19.5849 2.42264C19.6329 2.35074 19.6959 2.28463 19.7737 2.2243C19.8548 2.16282 19.9508 2.1126 20.0618 2.07363C20.238 2.01173 20.4164 1.98209 20.597 1.98469C20.7808 1.98615 20.9756 2.0241 21.1813 2.09853L21.3017 1.7207C21.0762 1.64221 20.8567 1.60192 20.6434 1.59983C20.4321 1.59334 20.2008 1.63422 19.9495 1.72247C19.7863 1.77978 19.6448 1.857 19.5249 1.95411C19.4039 2.04796 19.3077 2.15509 19.2363 2.27551C19.1637 2.39267 19.1198 2.51812 19.1044 2.65188C19.089 2.78564 19.1054 2.92108 19.1535 3.0582C19.2039 3.20186 19.2703 3.3179 19.3527 3.40633C19.435 3.49476 19.5373 3.56154 19.6594 3.60666C19.7816 3.65177 19.9242 3.67687 20.0873 3.68194C20.2536 3.68586 20.4422 3.67466 20.6529 3.64834C20.8462 3.62447 21.0074 3.61371 21.1365 3.61603C21.2689 3.61721 21.3769 3.63246 21.4605 3.66178C21.5441 3.69109 21.6104 3.73381 21.6594 3.78994C21.7073 3.84281 21.7456 3.91005 21.7742 3.99167C21.8361 4.16798 21.8158 4.33464 21.7133 4.49167C21.614 4.64755 21.4485 4.76618 21.2168 4.84756C20.9785 4.93124 20.7542 4.96599 20.544 4.95181C20.3325 4.93438 20.1084 4.87556 19.8716 4.77535L19.7314 5.14364C20.0023 5.25753 20.2665 5.32064 20.5237 5.33297C20.7831 5.34089 21.0499 5.29671 21.3241 5.20043C21.4938 5.14083 21.6425 5.06296 21.77 4.96682C21.8976 4.87068 21.9971 4.7624 22.0685 4.64198C22.1431 4.52041 22.1886 4.38891 22.205 4.24748C22.2213 4.10605 22.2037 3.96187 22.1521 3.81495C22.0593 3.55049 21.8952 3.37526 21.6597 3.28926C21.4275 3.20212 21.1056 3.18316 20.6939 3.23237C20.4908 3.25967 20.3215 3.27331 20.1858 3.27327C20.049 3.26997 19.9372 3.25424 19.8503 3.22607C19.7623 3.19464 19.6938 3.15085 19.6447 3.09473C19.5957 3.0386 19.5569 2.96972 19.5282 2.8881Z" fill="white"/>
<path d="M27.4968 2.00707L27.5432 2.42486L26.1098 2.58418L26.0634 2.16639L27.4968 2.00707Z" fill="white"/>
</svg>
