<svg width="12" height="13" viewBox="0 0 12 13" fill="none" xmlns="http://www.w3.org/2000/svg">
<path d="M5.99534 2.91344C5.17813 2.91344 4.39439 3.23808 3.81653 3.81593C3.23868 4.39379 2.91404 5.17753 2.91404 5.99474C2.91404 6.81195 3.23868 7.59569 3.81653 8.17354C4.39439 8.7514 5.17813 9.07604 5.99534 9.07604C6.81255 9.07604 7.59629 8.7514 8.17414 8.17354C8.752 7.59569 9.07663 6.81195 9.07663 5.99474C9.07663 5.17753 8.752 4.39379 8.17414 3.81593C7.59629 3.23808 6.81255 2.91344 5.99534 2.91344ZM5.99534 7.99585C5.46443 7.99585 4.95527 7.78495 4.57987 7.40954C4.20446 7.03414 3.99356 6.52498 3.99356 5.99407C3.99356 5.46317 4.20446 4.95401 4.57987 4.5786C4.95527 4.2032 5.46443 3.9923 5.99534 3.9923C6.52624 3.9923 7.0354 4.2032 7.41081 4.5786C7.78621 4.95401 7.99712 5.46317 7.99712 5.99407C7.99712 6.52498 7.78621 7.03414 7.41081 7.40954C7.0354 7.78495 6.52624 7.99585 5.99534 7.99585Z" fill="white"/>
<path d="M9.19866 3.5185C9.59539 3.5185 9.91701 3.19689 9.91701 2.80016C9.91701 2.40342 9.59539 2.08181 9.19866 2.08181C8.80193 2.08181 8.48031 2.40342 8.48031 2.80016C8.48031 3.19689 8.80193 3.5185 9.19866 3.5185Z" fill="white"/>
<path d="M11.6821 2.06975C11.5279 1.67138 11.2921 1.30961 10.99 1.00759C10.6879 0.705576 10.326 0.469972 9.92759 0.31586C9.46135 0.140842 8.9688 0.0462069 8.4709 0.0359839C7.82919 0.00799638 7.62594 0 5.99867 0C4.37139 0 4.16282 -6.70552e-08 3.52643 0.0359839C3.02891 0.0456842 2.53671 0.140339 2.07108 0.31586C1.67255 0.469792 1.31059 0.705333 1.00844 1.00737C0.706289 1.30941 0.47061 1.67127 0.316526 2.06975C0.141474 2.53595 0.0470554 3.02855 0.0373167 3.52643C0.00866281 4.16748 0 4.37072 0 5.99867C0 7.62594 -3.72529e-09 7.83319 0.0373167 8.4709C0.0473123 8.96935 0.14127 9.46113 0.316526 9.92825C0.471042 10.3266 0.70695 10.6883 1.00918 10.9903C1.3114 11.2923 1.6733 11.5279 2.07175 11.6821C2.5365 11.8642 3.0289 11.9656 3.52777 11.982C4.16948 12.01 4.37272 12.0187 6 12.0187C7.62728 12.0187 7.83585 12.0187 8.47223 11.982C8.97008 11.9719 9.46262 11.8775 9.92892 11.7028C10.3272 11.5483 10.689 11.3125 10.9911 11.0104C11.2932 10.7083 11.529 10.3466 11.6835 9.94825C11.8587 9.48179 11.9527 8.99 11.9627 8.49156C11.9913 7.85051 12 7.64727 12 6.01932C12 4.39138 12 4.18481 11.9627 3.54709C11.9549 3.04216 11.86 2.54237 11.6821 2.06975ZM10.8705 8.42159C10.8662 8.80562 10.7961 9.18608 10.6633 9.54642C10.5632 9.80555 10.41 10.0409 10.2135 10.2372C10.017 10.4336 9.78162 10.5867 9.52243 10.6866C9.16608 10.8188 8.78967 10.8889 8.4096 10.8938C7.77654 10.9231 7.59796 10.9305 5.97468 10.9305C4.35007 10.9305 4.18414 10.9305 3.53909 10.8938C3.15921 10.8892 2.78298 10.8191 2.42692 10.6866C2.16683 10.5873 1.93048 10.4345 1.73316 10.2381C1.53584 10.0417 1.38194 9.80605 1.28143 9.54642C1.15045 9.18995 1.08039 8.81398 1.07419 8.43425C1.04554 7.8012 1.03887 7.62261 1.03887 5.99933C1.03887 4.37539 1.03887 4.20946 1.07419 3.56375C1.0785 3.17993 1.14859 2.7997 1.28143 2.43958C1.48467 1.91382 1.90116 1.5 2.42692 1.29876C2.78316 1.16691 3.15928 1.09682 3.53909 1.09151C4.17281 1.06286 4.35073 1.05486 5.97468 1.05486C7.59862 1.05486 7.76522 1.05486 8.4096 1.09151C8.7897 1.09609 9.16617 1.1662 9.52243 1.29876C9.7816 1.39889 10.017 1.55211 10.2134 1.74858C10.4099 1.94504 10.5631 2.18041 10.6633 2.43958C10.7942 2.79606 10.8643 3.17203 10.8705 3.55175C10.8992 4.18547 10.9065 4.36339 10.9065 5.98734C10.9065 7.61062 10.9065 7.78521 10.8778 8.42226L10.8705 8.42159Z" fill="white"/>
</svg>
