<svg width="85" height="18" viewBox="0 0 85 18" fill="none" xmlns="http://www.w3.org/2000/svg">
<path d="M8.57004 0.537775C9.95936 0.537775 11.0755 0.67027 11.9184 0.93526C12.777 1.18466 13.3702 1.62891 13.698 2.26801C14.0258 2.89152 14.1195 3.77222 13.979 4.91012C13.8229 6.03243 13.5029 6.87417 13.019 7.43533C12.5507 7.99648 11.7701 8.32382 10.6774 8.41735L10.654 8.55764C11.9028 8.66675 12.7458 9.111 13.1829 9.89039C13.62 10.6542 13.7448 11.6908 13.5575 13.0001C13.4014 14.0757 13.097 14.9096 12.6443 15.502C12.1916 16.0787 11.5438 16.484 10.7008 16.7178C9.85789 16.936 8.78078 17.0451 7.46952 17.0451C6.31436 17.0451 5.3153 17.0373 4.47234 17.0218C3.62939 17.0218 2.85668 17.0062 2.15422 16.975C1.45176 16.9438 0.733683 16.9048 0 16.8581L2.2713 0.724826C2.91132 0.662477 3.53573 0.623507 4.14453 0.607919C4.76894 0.576744 5.43238 0.561156 6.13484 0.561156C6.85291 0.545569 7.66465 0.537775 8.57004 0.537775ZM8.40613 3.64752C7.98466 3.64752 7.58659 3.64752 7.21195 3.64752C6.8373 3.64752 6.48607 3.64752 6.15825 3.64752L5.66653 7.13137H7.63343C8.36711 7.13137 8.87444 7.00667 9.15543 6.75726C9.45202 6.50786 9.66276 5.98567 9.78764 5.1907C9.86569 4.58278 9.80325 4.1775 9.60032 3.97486C9.413 3.75663 9.01493 3.64752 8.40613 3.64752ZM7.53976 9.86701H5.26847L4.7065 13.9354C5.3153 13.9354 5.96313 13.9354 6.64998 13.9354C7.22756 13.9354 7.68806 13.8808 8.03149 13.7717C8.37491 13.6626 8.62468 13.4522 8.78078 13.1404C8.95249 12.8287 9.08518 12.3844 9.17884 11.8077C9.28811 11.0127 9.23348 10.4905 9.01493 10.2411C8.79639 9.99171 8.30467 9.86701 7.53976 9.86701Z" fill="white"/>
<path d="M22.3017 4.91012C23.8315 4.91012 25.0101 5.07379 25.8374 5.40113C26.6804 5.71289 27.2424 6.18052 27.5234 6.80403C27.82 7.42753 27.898 8.19912 27.7575 9.1188C27.6014 10.1788 27.1331 10.9114 26.3526 11.3167C25.5877 11.7064 24.4403 11.9558 22.9105 12.0649L19.7026 12.3221C19.7182 12.9768 19.8821 13.3976 20.1943 13.5847C20.5065 13.7561 20.9983 13.8419 21.6695 13.8419C22.0129 13.8419 22.4578 13.8341 23.0042 13.8185C23.5662 13.7873 24.1437 13.7561 24.7369 13.725C25.3457 13.6782 25.8765 13.6314 26.3292 13.5847L26.6336 16.2034C25.8531 16.5463 24.9789 16.7879 24.011 16.9282C23.0588 17.0685 22.1456 17.1387 21.2714 17.1387C19.6011 17.1387 18.3133 16.9048 17.4079 16.4372C16.5025 15.954 15.9015 15.2526 15.6049 14.3329C15.3083 13.4132 15.2303 12.2753 15.3708 10.9192C15.5581 9.28247 15.9327 8.03545 16.4947 7.17813C17.0567 6.30522 17.8216 5.71289 18.7894 5.40113C19.7572 5.07379 20.928 4.91012 22.3017 4.91012ZM22.2783 7.73929C21.7944 7.73929 21.4041 7.80943 21.1075 7.94972C20.8265 8.07442 20.5924 8.30824 20.4051 8.65117C20.2334 8.9941 20.0851 9.4929 19.9602 10.1476L21.9271 9.93715C22.4734 9.89039 22.8871 9.79686 23.1681 9.65657C23.4491 9.51628 23.6208 9.19674 23.6832 8.69793C23.7457 8.29265 23.6754 8.02766 23.4725 7.90296C23.2696 7.77826 22.8715 7.7237 22.2783 7.73929Z" fill="white"/>
<path d="M34.7148 4.91012C35.308 4.92571 35.9558 4.95688 36.6583 5.00365C37.3608 5.03482 38.0398 5.08938 38.6954 5.16732C39.3511 5.24526 39.9052 5.33099 40.3579 5.42451L40.0067 7.92634C39.2418 7.92634 38.4769 7.92634 37.712 7.92634C36.9627 7.91075 36.229 7.90296 35.5109 7.90296C34.6524 7.90296 34.0748 7.92634 33.7782 7.9731C33.4816 8.00428 33.3177 8.12898 33.2865 8.34721C33.2553 8.54985 33.3255 8.70572 33.4972 8.81484C33.6845 8.92395 34.0124 9.05645 34.4807 9.21232L37.1968 10.0541C38.1335 10.3346 38.8203 10.7633 39.2574 11.34C39.7101 11.9168 39.8818 12.6806 39.7725 13.6314C39.6477 14.629 39.3433 15.3773 38.8593 15.8761C38.3754 16.3749 37.7198 16.7022 36.8924 16.8581C36.0651 17.0295 35.0895 17.1153 33.9655 17.1153C33.1538 17.1153 32.2952 17.0841 31.3898 17.0218C30.5 16.9594 29.4776 16.8347 28.3224 16.6476L28.6971 14.1224C28.9312 14.138 29.2668 14.1458 29.7039 14.1458C30.141 14.1458 30.6093 14.1458 31.1088 14.1458C31.624 14.1458 32.1079 14.1458 32.5606 14.1458C33.4036 14.1458 34.0436 14.1302 34.4807 14.0991C34.9177 14.0679 35.2221 14.0133 35.3939 13.9354C35.5656 13.8419 35.6592 13.7172 35.6748 13.5613C35.7061 13.3586 35.628 13.2106 35.4407 13.117C35.269 13.0235 34.9099 12.891 34.3636 12.7196L31.7411 11.8544C30.7108 11.5271 30.0005 11.0439 29.6103 10.4048C29.2356 9.7501 29.1107 8.95513 29.2356 8.01987C29.3449 7.33401 29.579 6.76506 29.9381 6.31301C30.3127 5.84538 30.8825 5.49466 31.6474 5.26084C32.4123 5.02703 33.4348 4.91012 34.7148 4.91012Z" fill="white"/>
<path d="M46.0733 5.23746L46.1201 7.41194C46.9006 6.63256 47.7436 6.02464 48.649 5.58819C49.57 5.13614 50.4598 4.91012 51.3184 4.91012C52.2862 4.91012 53.0589 5.1907 53.6365 5.75186C54.2297 6.31301 54.4482 7.13916 54.2921 8.2303L53.0745 16.8581H48.8129L49.8432 9.58643C49.9056 9.16556 49.8822 8.87719 49.7729 8.72131C49.6637 8.54985 49.4295 8.4797 49.0705 8.51088C48.7114 8.52646 48.3134 8.63558 47.8763 8.83822C47.4548 9.02527 46.9475 9.34482 46.3543 9.79686L45.3708 16.8581H41.1092L42.7249 5.23746H46.0733Z" fill="white"/>
<path d="M60.7396 0C61.6606 0 62.0665 0.444249 61.9572 1.33275L61.7933 2.57197C61.684 3.35135 61.2157 3.74104 60.3884 3.74104H58.7024C57.797 3.74104 57.399 3.2968 57.5083 2.4083L57.6722 1.16908C57.7502 0.389692 58.2107 0 59.0537 0H60.7396ZM61.3484 5.23746L59.7327 16.8581H55.4945L57.1102 5.23746H61.3484Z" fill="white"/>
<path d="M68.7714 0.491011L67.8582 7.20151C67.7646 7.70032 67.6397 8.18354 67.4836 8.65117C67.3275 9.10321 67.1324 9.56305 66.8982 10.0307C67.9285 9.51628 68.8417 8.83822 69.6378 7.99648C70.4339 7.13916 70.9491 6.21949 71.1832 5.23746H75.5619C75.2341 6.54683 74.7112 7.64576 73.9931 8.53426C73.2906 9.42276 72.4867 10.171 71.5813 10.7789C71.8623 10.9971 72.0964 11.2387 72.2837 11.5037C72.4711 11.7531 72.6272 12.0181 72.7521 12.2987L74.9063 16.8581H70.5276L68.4905 12.3454C68.2407 12.439 67.9909 12.5325 67.7412 12.626C67.4914 12.704 67.2494 12.7819 67.0153 12.8598C67.0153 13.0157 67.0075 13.156 66.9919 13.2807L66.4767 16.8581H62.2151L64.5098 0.491011H68.7714Z" fill="white"/>
<path d="M85 15.0773C85 16.6915 83.6896 18 82.0731 18C80.4566 18 79.1461 16.6915 79.1461 15.0773C79.1461 13.4632 80.4566 12.1546 82.0731 12.1546C83.6896 12.1546 85 13.4632 85 15.0773Z" fill="white"/>
</svg>
